#N canvas 729 60 472 619 10;
#X msg 29 481 connect localhost 8090;
#N canvas 0 22 450 300 toOSC 0;
#X obj 68 43 inlet;
#X obj 65 285 outlet;
#X obj 64 86 list split 1;
#X obj 112 115 list prepend set;
#X obj 64 114 t b l;
#X obj 112 143 list trim;
#X obj 77 204 list prepend send;
#X obj 77 227 list trim;
#X obj 77 144 list;
#X obj 107 175 oscformat;
#X connect 0 0 2 0;
#X connect 2 0 4 0;
#X connect 2 1 8 1;
#X connect 3 0 5 0;
#X connect 4 0 8 0;
#X connect 4 1 3 0;
#X connect 5 0 9 0;
#X connect 6 0 7 0;
#X connect 7 0 1 0;
#X connect 8 0 9 0;
#X connect 9 0 6 0;
#X restore 43 449 pd toOSC;
#X text 226 17 todo \, faire un gui dynamique avec le nom des param
dans le text;
#X text 248 51 rajouter un minimum et un maximum dans le text pour
scaller clean;
#X obj 141 373 bng 15 250 50 0 empty empty empty 17 7 0 10 -262144
-1 -1;
#X msg 140 404 /get;
#X obj 43 504 netsend -b -u;
#X obj 118 458 loadbang;
#X obj 46 535 sel 0;
#X obj 30 566 del 2000;
#X obj 29 385 list trim;
#X msg 258 126 read guiParam.txt;
#X obj 256 175 text define guiParameters;
#X obj 194 374 bng 15 250 50 0 empty empty empty 17 7 0 10 -262144
-1 -1;
#X msg 193 405 /save;
#X obj 244 375 bng 15 250 50 0 empty empty empty 17 7 0 10 -262144
-1 -1;
#X msg 243 406 /load;
#N canvas 0 22 450 300 receive 0;
#X obj 134 74 oscparse;
#X obj 135 7 loadbang;
#X msg 134 28 listen 8091;
#X obj 134 97 list trim;
#X obj 134 52 netreceive -u -b;
#X obj 134 145 text search guiParameters;
#X obj 134 117 list split 1;
#X obj 133 206 list append;
#X obj 133 232 outlet;
#X obj 50 187 list;
#X obj 50 210 list append;
#X obj 133 170 sel -1;
#X obj 50 232 outlet;
#X connect 0 0 3 0;
#X connect 1 0 2 0;
#X connect 2 0 4 0;
#X connect 3 0 6 0;
#X connect 4 0 0 0;
#X connect 5 0 11 0;
#X connect 6 0 5 0;
#X connect 6 0 9 1;
#X connect 6 1 7 1;
#X connect 6 1 10 1;
#X connect 7 0 8 0;
#X connect 9 0 10 0;
#X connect 10 0 12 0;
#X connect 11 0 9 0;
#X connect 11 1 7 0;
#X restore 29 99 pd receive;
#X msg 275 147 write guiParam.txt;
#X obj 168 35 loadbang;
#X obj 29 137 prm 0;
#X obj 179 78 t b b;
#X msg 179 101 init 1;
#X obj 29 270 prm 3;
#X obj 29 181 prm 1;
#X obj 29 224 prm 2;
#X obj 29 315 prm 4;
#X obj 308 373 bng 15 250 50 0 empty empty empty 17 7 0 10 -262144
-1 -1;
#X msg 307 404 /destination localhost 8091;
#X msg 315 434 /destination 127.0.0.1 8092;
#X connect 0 0 6 0;
#X connect 1 0 6 0;
#X connect 4 0 5 0;
#X connect 5 0 1 0;
#X connect 6 0 8 0;
#X connect 7 0 0 0;
#X connect 8 0 9 0;
#X connect 9 0 0 0;
#X connect 10 0 1 0;
#X connect 11 0 12 0;
#X connect 13 0 14 0;
#X connect 14 0 1 0;
#X connect 15 0 16 0;
#X connect 16 0 1 0;
#X connect 17 0 20 0;
#X connect 17 1 20 1;
#X connect 18 0 12 0;
#X connect 19 0 21 0;
#X connect 20 0 24 0;
#X connect 20 1 24 1;
#X connect 21 0 22 0;
#X connect 21 1 11 0;
#X connect 22 0 20 1;
#X connect 23 0 26 0;
#X connect 23 1 26 1;
#X connect 24 0 25 0;
#X connect 24 1 25 1;
#X connect 25 0 23 0;
#X connect 25 1 23 1;
#X connect 26 0 10 0;
#X connect 27 0 28 0;
#X connect 28 0 1 0;
#X connect 29 0 1 0;
