#N canvas 106 342 267 184 10;
#N canvas 417 33 598 594 tolight 0;
#X obj 31 26 inlet~;
#X obj 106 25 inlet~;
#X obj 187 25 inlet~;
#X obj 31 84 int;
#X obj 31 58 env~ 8096;
#X obj 106 61 env~ 2048;
#X obj 103 100 int;
#X obj 103 122 - 70;
#X obj 189 60 env~ 2048;
#X obj 189 93 int;
#X obj 30 156 * 0.01;
#X obj 105 167 * 0.01;
#X obj 189 116 * 0.01;
#X obj 318 57 array define lapping 8;
#X obj 30 221 abs.setarray lapping 7;
#X obj 318 79 array define crackles 8;
#X obj 318 102 array define hissing 8;
#X msg 264 344 symbol lapping;
#X msg 264 363 symbol crackles;
#X msg 264 381 symbol hissing;
#X obj 6 312 tgl 15 0 empty empty empty 17 7 0 10 -262144 -1 -1 1 1
;
#X obj 106 288 array define luma 8;
#X obj 70 511 array set luma;
#X obj 104 144 * 10;
#X obj 5 335 metro 1;
#X obj 105 193 abs.setarray crackles 7;
#X obj 189 143 abs.setarray hissing 7;
#X obj 264 324 loadbang;
#X obj 70 480 clip 0 1;
#X obj 70 460 expr abs($s2[$f1]+$s3[$f1]-$s4[$f1]);
#X obj 7 266 loadbang;
#X obj 5 423 until;
#X obj 5 445 i;
#X obj 35 446 + 1;
#X obj 5 401 t f b;
#X msg 42 423 0;
#X obj 5 379 expr size("$s1");
#X msg 5 355 symbol luma;
#X obj 5 467 t b f f;
#X obj 6 291 del 1000;
#X obj 553 61 tgl 15 0 empty empty empty 17 7 0 10 -262144 -1 -1 1
1;
#X obj 555 11 loadbang;
#X obj 553 40 del 1000;
#X obj 549 252 array get luma 0 1;
#X obj 582 205 makefilename /DIMMER/%d/SET;
#X obj 547 344 list prepend;
#X obj 555 152 t f f;
#X obj 549 322 int;
#X obj 548 370 list trim;
#X msg 503 469 disconnect;
#X floatatom 572 525 0 0 0 0 - - -;
#X obj 630 526 print backward;
#X obj 573 496 netsend -u -b;
#X msg 601 465 connect 192.168.0.200 10000;
#X obj 502 442 loadbang;
#X obj 502 507 sel 0;
#X obj 501 532 del 2000;
#N canvas 957 327 450 300 dimm 0;
#X obj 12 243 outlet;
#X obj 33 12 tgl 15 0 empty empty empty 17 7 0 10 -262144 -1 -1 0 1
;
#X msg 33 206 /DIMMER/0/SET \$1;
#X msg 54 184 /DIMMER/1/SET \$1;
#X msg 74 161 /DIMMER/2/SET \$1;
#X msg 94 141 /DIMMER/3/SET \$1;
#X obj 54 12 tgl 15 0 empty empty empty 17 7 0 10 -262144 -1 -1 0 1
;
#X obj 74 12 tgl 15 0 empty empty empty 17 7 0 10 -262144 -1 -1 0 1
;
#X obj 94 12 tgl 15 0 empty empty empty 17 7 0 10 -262144 -1 -1 0 1
;
#X obj 114 12 tgl 15 0 empty empty empty 17 7 0 10 -262144 -1 -1 0
1;
#X obj 134 12 tgl 15 0 empty empty empty 17 7 0 10 -262144 -1 -1 0
1;
#X obj 154 12 tgl 15 0 empty empty empty 17 7 0 10 -262144 -1 -1 0
1;
#X obj 174 12 tgl 15 0 empty empty empty 17 7 0 10 -262144 -1 -1 0
1;
#X msg 174 51 /DIMMER/7/SET \$1;
#X msg 113 116 /DIMMER/4/SET \$1;
#X msg 134 94 /DIMMER/5/SET \$1;
#X msg 154 71 /DIMMER/6/SET \$1;
#X obj 0 -2 tgl 15 0 empty empty empty 17 7 0 10 -262144 -1 -1 0 1
;
#X msg 177 -8 \$1;
#X msg 244 12 1;
#X msg 282 18 0;
#X floatatom 4 67 5 0 0 0 - - -, f 5;
#X connect 1 0 2 0;
#X connect 2 0 0 0;
#X connect 3 0 0 0;
#X connect 4 0 0 0;
#X connect 5 0 0 0;
#X connect 6 0 3 0;
#X connect 7 0 4 0;
#X connect 8 0 5 0;
#X connect 9 0 14 0;
#X connect 10 0 15 0;
#X connect 11 0 16 0;
#X connect 12 0 13 0;
#X connect 13 0 0 0;
#X connect 14 0 0 0;
#X connect 15 0 0 0;
#X connect 16 0 0 0;
#X connect 17 0 1 0;
#X connect 17 0 6 0;
#X connect 17 0 7 0;
#X connect 17 0 8 0;
#X connect 17 0 9 0;
#X connect 17 0 10 0;
#X connect 17 0 11 0;
#X connect 17 0 12 0;
#X connect 18 0 12 0;
#X connect 18 0 11 0;
#X connect 18 0 10 0;
#X connect 18 0 9 0;
#X connect 18 0 8 0;
#X connect 18 0 7 0;
#X connect 18 0 6 0;
#X connect 18 0 1 0;
#X connect 19 0 18 0;
#X connect 20 0 18 0;
#X connect 21 0 2 0;
#X restore 651 388 pd dimm;
#N canvas 0 22 450 300 toOSC 0;
#X obj 68 43 inlet;
#X obj 65 285 outlet;
#X obj 64 86 list split 1;
#X obj 112 115 list prepend set;
#X obj 64 114 t b l;
#X obj 112 143 list trim;
#X obj 77 204 list prepend send;
#X obj 77 227 list trim;
#X obj 77 144 list;
#X obj 77 175 oscformat -f i;
#X connect 0 0 2 0;
#X connect 2 0 4 0;
#X connect 2 1 8 1;
#X connect 3 0 5 0;
#X connect 4 0 8 0;
#X connect 4 1 3 0;
#X connect 5 0 9 0;
#X connect 6 0 7 0;
#X connect 7 0 1 0;
#X connect 8 0 9 0;
#X connect 9 0 6 0;
#X restore 579 420 pd toOSC;
#X obj 582 181 + 0;
#X obj 553 104 int;
#X obj 586 103 + 1;
#X obj 553 129 % 8;
#X obj 552 79 metro 1;
#X obj 549 279 * 14000;
#X obj 549 299 expr 14000 - $f1;
#X connect 0 0 4 0;
#X connect 1 0 5 0;
#X connect 2 0 8 0;
#X connect 3 0 10 0;
#X connect 4 0 3 0;
#X connect 5 0 6 0;
#X connect 6 0 7 0;
#X connect 7 0 23 0;
#X connect 8 0 9 0;
#X connect 9 0 12 0;
#X connect 10 0 14 0;
#X connect 11 0 25 0;
#X connect 12 0 26 0;
#X connect 17 0 29 1;
#X connect 18 0 29 2;
#X connect 19 0 29 3;
#X connect 20 0 24 0;
#X connect 23 0 11 0;
#X connect 24 0 37 0;
#X connect 27 0 17 0;
#X connect 27 0 18 0;
#X connect 27 0 19 0;
#X connect 28 0 22 0;
#X connect 29 0 28 0;
#X connect 30 0 39 0;
#X connect 31 0 32 0;
#X connect 32 0 33 0;
#X connect 32 0 38 0;
#X connect 33 0 32 1;
#X connect 34 0 31 0;
#X connect 34 1 35 0;
#X connect 35 0 32 1;
#X connect 36 0 34 0;
#X connect 37 0 36 0;
#X connect 38 1 29 0;
#X connect 38 2 22 1;
#X connect 39 0 20 0;
#X connect 40 0 63 0;
#X connect 41 0 42 0;
#X connect 42 0 40 0;
#X connect 43 0 64 0;
#X connect 44 0 45 1;
#X connect 45 0 48 0;
#X connect 46 0 43 0;
#X connect 46 1 59 0;
#X connect 47 0 45 0;
#X connect 48 0 58 0;
#X connect 49 0 52 0;
#X connect 52 0 50 0;
#X connect 52 0 55 0;
#X connect 52 1 51 0;
#X connect 53 0 52 0;
#X connect 54 0 53 0;
#X connect 55 0 56 0;
#X connect 56 0 53 0;
#X connect 57 0 58 0;
#X connect 58 0 52 0;
#X connect 59 0 44 0;
#X connect 60 0 62 0;
#X connect 60 0 61 0;
#X connect 61 0 60 1;
#X connect 62 0 46 0;
#X connect 63 0 60 0;
#X connect 64 0 65 0;
#X connect 65 0 47 0;
#X restore 23 123 pd tolight;
#N canvas 59 96 627 554 dsp 0;
#X obj 202 228 hip~ 1000;
#X obj 63 451 dac~;
#X obj 61 324 *~ 0.2;
#X obj 128 210 hip~ 600;
#X obj 60 109 bp~ 600 1;
#X obj 180 81 bp~ 1000 0.5;
#X obj 60 132 lop~ 50;
#X obj 60 371 +~;
#X obj 89 371 +~;
#X obj 59 418 *~ 1;
#X obj 95 418 *~ 1;
#X obj 68 189 outlet~;
#X obj 138 233 outlet~;
#X obj 206 251 outlet~;
#X msg 523 305 \; pd dsp 1;
#X obj 521 251 loadbang;
#X obj 521 273 del 100;
#X floatatom 276 281 5 0 0 1 dsp-reverb-liveness dsp-reverb-liveness
-, f 5;
#X floatatom 151 395 5 0 0 1 dsp-volume dsp-volume -, f 5;
#X obj 128 354 rev3~ 85 85 500 100;
#X floatatom 275 260 5 0 0 1 dsp-reverb-output dsp-reverb-output -
, f 5;
#X floatatom 276 328 5 0 0 1 dsp-reverb-damping dsp-reverb-damping
-, f 5;
#X floatatom 275 301 5 0 0 1 dsp-reverb-crossover dsp-reverb-crossover
-, f 5;
#X obj 59 31 abs.fire 2 lapping;
#X obj 64 52 abs.fire 2 lapping;
#X obj 180 57 abs.fire 2 crackles;
#X obj 184 30 abs.fire 2 crackles;
#X obj 231 200 abs.fire 4 hissing;
#X obj 228 176 abs.fire 4 hissing;
#X obj 225 154 abs.fire 4 hissing;
#X obj 222 130 abs.fire 4 hissing;
#X connect 0 0 2 0;
#X connect 0 0 13 0;
#X connect 0 0 19 1;
#X connect 2 0 7 0;
#X connect 2 0 8 0;
#X connect 3 0 2 0;
#X connect 3 0 12 0;
#X connect 3 0 19 0;
#X connect 4 0 6 0;
#X connect 5 0 3 0;
#X connect 6 0 2 0;
#X connect 6 0 11 0;
#X connect 7 0 9 0;
#X connect 8 0 10 0;
#X connect 9 0 1 0;
#X connect 10 0 1 1;
#X connect 15 0 16 0;
#X connect 16 0 14 0;
#X connect 17 0 19 3;
#X connect 18 0 9 1;
#X connect 18 0 10 1;
#X connect 19 0 7 0;
#X connect 19 1 8 1;
#X connect 20 0 19 2;
#X connect 21 0 19 5;
#X connect 22 0 19 4;
#X connect 23 0 4 0;
#X connect 24 0 4 0;
#X connect 25 0 5 0;
#X connect 26 0 5 0;
#X connect 27 0 0 0;
#X connect 28 0 0 0;
#X connect 29 0 0 0;
#X connect 30 0 0 0;
#X restore 22 93 pd dsp;
#N canvas 379 23 577 527 gestionFuego 0;
#X obj 12 19 text define -k param;
#A set abs.fire-lapping-lapping \; abs.fire-lapping-crackles \; abs.fire-lapping-hissing
\; abs.fire-crackles-lapping \; abs.fire-crackles-crackles \; abs.fire-crackles-hissing
\; abs.fire-hissing-lapping \; abs.fire-hissing-crackles \; abs.fire-hissing-hissing
\;;
#X obj 19 213 tgl 15 0 empty empty empty 17 7 0 10 -262144 -1 -1 1
1;
#X obj 18 234 metro 100;
#X obj 14 163 loadbang;
#N canvas 567 81 473 512 inter 0;
#X obj 55 149 until;
#X obj 55 171 i;
#X obj 85 172 + 1;
#X obj 55 127 t f b;
#X msg 92 149 0;
#X obj 78 42 hsl 128 15 0 1 0 0 empty empty empty -2 -8 0 10 -262144
-1 -1 0 1;
#X obj 55 253 expr $s3[$f1]*(1-$f2)+$s4[$f1]*$f2;
#X obj 55 193 t f f;
#X obj 75 62 t b f;
#X obj 208 154 inlet;
#X obj 272 159 inlet;
#X obj 332 157 inlet;
#X msg 332 179 set \$1;
#X obj 37 12 inlet;
#X obj 54 307 tabwrite;
#X obj 55 105 expr size("$s1");
#X connect 0 0 1 0;
#X connect 1 0 2 0;
#X connect 1 0 7 0;
#X connect 2 0 1 1;
#X connect 3 0 0 0;
#X connect 3 1 4 0;
#X connect 4 0 1 1;
#X connect 5 0 8 0;
#X connect 6 0 14 0;
#X connect 7 0 6 0;
#X connect 7 1 14 1;
#X connect 8 0 15 0;
#X connect 8 1 6 1;
#X connect 9 0 6 2;
#X connect 9 0 15 0;
#X connect 10 0 6 3;
#X connect 11 0 12 0;
#X connect 12 0 14 0;
#X connect 13 0 8 0;
#X connect 15 0 3 0;
#X restore 262 280 pd inter;
#X obj 261 78 hsl 128 15 0 1 0 0 empty empty 0--------------------1
-2 -8 0 10 -262144 -1 -1 6747 1;
#X text 392 257 interpolated values;
#X text 379 233 target array;
#X text 367 211 departure array;
#X text 398 84 slide between arrays;
#X obj 12 83 array define -k fire1 9;
#A 0 0.739996 0.473331 0.279994 0.593333 0.239994 0.359996 0.39333
0.459995 0.773336;
#X msg 278 212 symbol fire0;
#X msg 290 234 symbol fire1;
#X msg 306 257 symbol fire;
#X obj 18 259 array get fire;
#X obj 304 151 loadbang;
#N canvas 0 22 541 378 randomize 0;
#X obj 98 259 line;
#X obj 97 179 random 1000;
#X obj 97 205 * 0.001;
#X obj 172 180 random 10000;
#X obj 172 203 + 1000;
#X obj 99 235 pack;
#X obj 182 82 random 1000;
#X obj 182 104 + 1000;
#X obj 106 47 metro 1000;
#X obj 99 115 t b b b;
#X obj 73 86 bng 15 250 50 0 empty empty empty 17 7 0 10 -262144 -1
-1;
#X obj 246 326 outlet;
#X obj 307 15 inlet;
#X obj 246 273 spigot;
#X obj 262 30 t a a;
#X obj 350 230 expr 1-$f1;
#X obj 313 129 t a a;
#X obj 367 269 metro 20;
#X connect 0 0 13 0;
#X connect 1 0 2 0;
#X connect 2 0 5 0;
#X connect 3 0 4 0;
#X connect 4 0 5 1;
#X connect 5 0 0 0;
#X connect 6 0 7 0;
#X connect 7 0 8 1;
#X connect 8 0 9 0;
#X connect 8 0 10 0;
#X connect 9 0 1 0;
#X connect 9 1 3 0;
#X connect 9 2 6 0;
#X connect 12 0 14 0;
#X connect 13 0 11 0;
#X connect 14 0 8 0;
#X connect 14 1 16 0;
#X connect 15 0 17 0;
#X connect 16 0 13 1;
#X connect 16 1 15 0;
#X connect 17 0 11 0;
#X restore 257 42 pd randomize;
#X obj 19 188 del 200;
#N canvas 0 22 450 300 sendParams 0;
#X obj 79 12 inlet;
#X obj 91 215 list split 1;
#X obj 78 131 until;
#X obj 77 156 list append;
#X obj 169 73 bang;
#X obj 60 316 + 1;
#X obj 38 285 i;
#X obj 40 195 t b a;
#X obj 32 102 t b b;
#X msg 54 259 0;
#X obj 122 300 text get param;
#X obj 116 353 send;
#X obj 79 66 t b a;
#X obj 117 255 list trim;
#X obj 127 324 route bang;
#X connect 0 0 12 0;
#X connect 1 0 13 0;
#X connect 1 1 3 1;
#X connect 1 2 4 0;
#X connect 2 0 3 0;
#X connect 3 0 7 0;
#X connect 4 0 8 0;
#X connect 5 0 6 1;
#X connect 6 0 5 0;
#X connect 6 0 10 0;
#X connect 7 0 6 0;
#X connect 7 1 1 0;
#X connect 8 0 2 1;
#X connect 8 1 9 0;
#X connect 9 0 6 1;
#X connect 10 0 14 0;
#X connect 12 0 2 0;
#X connect 12 1 3 1;
#X connect 13 0 11 0;
#X connect 14 1 11 1;
#X restore 18 281 pd sendParams;
#X obj 366 18 loadbang;
#X msg 279 19 1;
#X obj 257 21 tgl 15 0 empty empty empty 17 7 0 10 -262144 -1 -1 1
1;
#X msg 307 19 del 1000;
#X obj 13 60 array define -k fire0 9;
#A 0 0.413333 0.506668 0.520002 0.333332 0.206663 0.226667 1.03334
0.159999 0.159999;
#X obj 12 136 array define fire 9;
#X obj 304 182 t b b b b;
#X obj 261 174 t a b;
#X connect 1 0 2 0;
#X connect 2 0 14 0;
#X connect 3 0 17 0;
#X connect 5 0 26 0;
#X connect 11 0 4 1;
#X connect 12 0 4 2;
#X connect 13 0 4 3;
#X connect 14 0 18 0;
#X connect 15 0 25 0;
#X connect 16 0 5 0;
#X connect 17 0 1 0;
#X connect 19 0 22 0;
#X connect 20 0 21 0;
#X connect 21 0 16 0;
#X connect 22 0 20 0;
#X connect 25 1 11 0;
#X connect 25 2 12 0;
#X connect 25 3 13 0;
#X connect 26 0 4 0;
#X connect 26 1 11 0;
#X restore 22 71 pd gestionFuego;
#N canvas 615 235 458 445 OSCparams 0;
#X msg 39 48 listen 8090;
#X obj 39 98 oscparse;
#X obj 39 167 list trim;
#N canvas 559 32 450 300 load 0;
#X obj 34 3 inlet;
#X obj 117 60 r loadparams;
#X obj 98 97 text size guiParams;
#X obj 99 251 tabread guiParams;
#X obj 98 281 send;
#X obj 99 205 t a a;
#X obj 99 142 until;
#X obj 70 72 bng 15 250 50 0 empty empty empty 17 7 0 10 -262144 -1
-1;
#X obj 131 179 + 1;
#X obj 99 169 int;
#X obj 99 119 t a b;
#X msg 143 145 0;
#X obj 90 7 loadbang;
#X obj 126 229 text get guiParams 0 1;
#X obj 85 37 del 1000;
#X connect 0 0 7 0;
#X connect 1 0 2 0;
#X connect 2 0 10 0;
#X connect 3 0 4 0;
#X connect 5 0 3 0;
#X connect 5 1 13 0;
#X connect 6 0 9 0;
#X connect 7 0 2 0;
#X connect 8 0 9 1;
#X connect 9 0 8 0;
#X connect 9 0 5 0;
#X connect 10 0 6 0;
#X connect 10 1 11 0;
#X connect 11 0 9 1;
#X connect 12 0 14 0;
#X connect 13 0 4 1;
#X connect 14 0 7 0;
#X restore 74 278 pd load;
#N canvas 441 34 450 300 save 0;
#X obj 45 24 inlet;
#X obj 55 81 t b b;
#X obj 52 62 bng 15 250 50 0 empty empty empty 17 7 0 10 -262144 -1
-1;
#X msg 82 105 write guiParam.txt;
#X msg 55 164 write guiParam.dat;
#X obj 56 185 array define guiParams;
#X msg 221 105 read guiParam.txt;
#X msg 221 154 read guiParam.dat;
#X obj 222 64 loadbang;
#X obj 82 127 text define guiParams;
#X connect 0 0 2 0;
#X connect 1 0 4 0;
#X connect 1 1 3 0;
#X connect 2 0 1 0;
#X connect 3 0 9 0;
#X connect 4 0 5 0;
#X connect 6 0 9 0;
#X connect 7 0 5 0;
#X connect 8 0 6 0;
#X connect 8 0 7 0;
#X restore 39 300 pd save;
#N canvas 0 172 516 398 get 0;
#X obj 29 15 inlet;
#X obj 57 67 text size guiParams;
#X obj 59 282 tabread guiParams;
#X obj 85 199 text get guiParams;
#X obj 58 175 t a a;
#X obj 58 112 until;
#X obj 29 42 bng 15 250 50 0 empty empty empty 17 7 0 10 -262144 -1
-1;
#X obj 90 149 + 1;
#X obj 58 139 int;
#X obj 58 89 t a b;
#X msg 102 115 0;
#X obj 58 306 list prepend;
#X obj 60 325 list trim;
#N canvas 0 22 450 300 toOSC 0;
#X obj 68 43 inlet;
#X obj 65 285 outlet;
#X obj 64 86 list split 1;
#X obj 112 115 list prepend set;
#X obj 64 114 t b l;
#X obj 112 143 list trim;
#X obj 77 204 list prepend send;
#X obj 77 227 list trim;
#X obj 77 144 list;
#X obj 107 175 oscformat;
#X connect 0 0 2 0;
#X connect 2 0 4 0;
#X connect 2 1 8 1;
#X connect 3 0 5 0;
#X connect 4 0 8 0;
#X connect 4 1 3 0;
#X connect 5 0 9 0;
#X connect 6 0 7 0;
#X connect 7 0 1 0;
#X connect 8 0 9 0;
#X connect 9 0 6 0;
#X restore 60 358 pd toOSC;
#X obj 84 242 abs.combine / data;
#X obj 85 221 t b a;
#X obj 61 381 outlet;
#X connect 0 0 6 0;
#X connect 1 0 9 0;
#X connect 2 0 11 0;
#X connect 3 0 15 0;
#X connect 4 0 2 0;
#X connect 4 1 3 0;
#X connect 5 0 8 0;
#X connect 6 0 1 0;
#X connect 7 0 8 1;
#X connect 8 0 7 0;
#X connect 8 0 4 0;
#X connect 9 0 5 0;
#X connect 9 1 10 0;
#X connect 10 0 8 1;
#X connect 11 0 12 0;
#X connect 12 0 13 0;
#X connect 13 0 16 0;
#X connect 14 0 11 1;
#X connect 15 0 14 0;
#X connect 15 1 14 1;
#X restore 130 247 pd get;
#X obj 40 24 loadbang;
#X obj 65 145 r dispatcher;
#N canvas 668 76 450 300 storeAndSet 0;
#X obj 135 9 inlet;
#X obj 139 84 text search guiParams;
#X obj 140 49 list split 1;
#X obj 178 176 list;
#X obj 178 207 tabwrite guiParams;
#X obj 140 324 send;
#X obj 140 138 t a a b a;
#X obj 140 272 tabread guiParams;
#X obj 162 239 text get guiParams 0 1;
#X connect 0 0 2 0;
#X connect 1 0 6 0;
#X connect 2 0 1 0;
#X connect 2 1 3 1;
#X connect 3 0 4 0;
#X connect 6 0 7 0;
#X connect 6 1 8 0;
#X connect 6 2 3 0;
#X connect 6 3 4 1;
#X connect 7 0 5 0;
#X connect 8 0 5 1;
#X restore 234 232 pd storeAndSet;
#X obj 138 275 t a b;
#X obj 205 409 expr 1-$f1;
#X obj 63 125 bng 15 250 50 0 empty empty empty 17 7 0 10 -262144 -1
-1;
#X obj 39 72 netreceive -u -b;
#X obj 193 383 netsend -b -u;
#X obj 38 195 route save load get destination;
#N canvas 0 22 450 300 destination 0;
#X obj 51 5 inlet;
#X obj 46 260 outlet;
#X msg 131 110 connect localhost 8091;
#X obj 46 189 spigot;
#X msg 187 163 1;
#X obj 103 4 inlet;
#X obj 62 42 list prepend connect;
#X obj 47 141 list trim;
#X obj 66 113 list;
#X obj 246 9 loadbang;
#X obj 67 67 t a b;
#X obj 180 65 t b b;
#X obj 295 26 inlet;
#X obj 46 217 t a b;
#X msg 71 240 disconnect;
#X connect 0 0 6 0;
#X connect 2 0 8 1;
#X connect 3 0 13 0;
#X connect 4 0 3 1;
#X connect 5 0 8 0;
#X connect 6 0 10 0;
#X connect 7 0 3 0;
#X connect 8 0 7 0;
#X connect 9 0 11 0;
#X connect 10 0 8 0;
#X connect 10 1 4 0;
#X connect 11 0 2 0;
#X connect 11 1 4 0;
#X connect 12 0 3 1;
#X connect 13 0 1 0;
#X connect 13 1 14 0;
#X connect 14 0 1 0;
#X restore 188 308 pd destination;
#X connect 0 0 12 0;
#X connect 1 0 11 0;
#X connect 1 0 2 0;
#X connect 2 0 14 0;
#X connect 5 0 9 0;
#X connect 6 0 0 0;
#X connect 7 0 2 0;
#X connect 9 0 13 0;
#X connect 9 1 15 1;
#X connect 10 0 15 2;
#X connect 12 0 1 0;
#X connect 13 0 10 0;
#X connect 14 0 4 0;
#X connect 14 1 3 0;
#X connect 14 2 5 0;
#X connect 14 3 15 0;
#X connect 14 4 8 0;
#X connect 15 0 13 0;
#X restore 22 15 pd OSCparams;
#X connect 1 0 0 0;
#X connect 1 1 0 1;
#X connect 1 2 0 2;
