#N canvas 0 23 450 300 10;
#X obj 56 86 + 1;
#X obj 13 67 t f b;
#X obj 56 60 i;
#X obj 82 112 sel 1;
#X msg 86 60 -1;
#X obj 98 83 >= \$2;
#X obj 13 144 array set \$1;
#X obj 24 25 inlet;
#X obj 18 119 outlet;
#X connect 0 0 2 1;
#X connect 0 0 5 0;
#X connect 0 0 6 1;
#X connect 0 0 8 0;
#X connect 1 0 6 0;
#X connect 1 1 2 0;
#X connect 2 0 0 0;
#X connect 3 0 4 0;
#X connect 4 0 2 1;
#X connect 5 0 3 0;
#X connect 7 0 1 0;
