#N canvas 852 38 450 300 10;
#X obj 62 242 netsend - b -u;
#X msg 74 220 connect localhost 8090;
#X floatatom 59 42 5 0 0 0 - - -, f 5;
#X msg 62 153 /lalala \$1;
#N canvas 0 22 450 300 toOSC 0;
#X obj 68 43 inlet;
#X obj 65 285 outlet;
#X obj 64 86 list split 1;
#X obj 112 115 list prepend set;
#X obj 64 114 t b l;
#X obj 112 143 list trim;
#X obj 77 204 list prepend send;
#X obj 77 227 list trim;
#X obj 77 144 list;
#X obj 107 175 oscformat;
#X connect 0 0 2 0;
#X connect 2 0 4 0;
#X connect 2 1 8 1;
#X connect 3 0 5 0;
#X connect 4 0 8 0;
#X connect 4 1 3 0;
#X connect 5 0 9 0;
#X connect 6 0 7 0;
#X connect 7 0 1 0;
#X connect 8 0 9 0;
#X connect 9 0 6 0;
#X restore 62 199 pd toOSC;
#X connect 1 0 0 0;
#X connect 2 0 3 0;
#X connect 3 0 4 0;
#X connect 4 0 0 0;
