#N canvas 315 107 569 471 10;
#X obj 64 -29 inlet;
#X obj 187 174 hsl 128 15 0 1 0 0 empty empty dsp-reverb-damping -2
-8 0 10 -262144 -1 -1 0 1;
#X obj 10 413 outlet;
#X obj 13 -17 inlet;
#X obj 162 51 outlet;
#X obj 277 370 list prepend;
#X obj 380 65 text get guiParameters;
#X obj 377 96 list split 1;
#X obj 182 246 expr $f1*($f3-$f2)+$f2;
#X obj 244 210 unpack;
#X obj 349 315 t b a;
#X msg 319 222 set \$1, f 7;
#X msg 130 232 set \$1;
#X obj 407 137 list trim;
#X floatatom 151 174 5 0 0 0 - - -, f 5;
#X floatatom 318 175 5 0 0 0 - - -, f 5;
#X obj 380 5 f \$1;
#X obj 349 3 bng 15 250 50 0 empty empty empty 17 7 0 10 -262144 -1
-1;
#X obj 235 110 list trim;
#X obj 235 81 list prepend label;
#X obj 345 342 abs.combine / data;
#X obj 74 -4 route \$1;
#X obj 73 78 expr $f1/$f3+$f2;
#X obj 49 274 list prepend set;
#X obj 49 295 list trim;
#X msg 73 100 set \$1;
#X obj 159 -22 route init;
#X obj 157 -1 t b b;
#X msg 158 24 init 1;
#X connect 0 0 21 0;
#X connect 1 0 8 0;
#X connect 3 0 2 0;
#X connect 5 0 2 0;
#X connect 6 0 7 0;
#X connect 7 0 10 0;
#X connect 7 0 19 0;
#X connect 7 1 13 0;
#X connect 8 0 5 0;
#X connect 9 0 8 1;
#X connect 9 0 12 0;
#X connect 9 0 22 1;
#X connect 9 1 8 2;
#X connect 9 1 11 0;
#X connect 9 1 22 2;
#X connect 10 0 20 0;
#X connect 10 1 20 1;
#X connect 11 0 15 0;
#X connect 12 0 14 0;
#X connect 13 0 9 0;
#X connect 16 0 6 0;
#X connect 17 0 16 0;
#X connect 18 0 1 0;
#X connect 19 0 18 0;
#X connect 20 0 5 1;
#X connect 21 0 22 0;
#X connect 21 1 26 0;
#X connect 22 0 25 0;
#X connect 23 0 24 0;
#X connect 25 0 1 0;
#X connect 26 0 27 0;
#X connect 26 1 4 0;
#X connect 27 0 28 0;
#X connect 27 1 17 0;
#X connect 28 0 4 0;
#X coords 0 -1 1 1 200 40 1 150 150;
