#N canvas 250 210 450 428 10;
#X obj 50 13 inlet;
#X obj 62 216 list split 1;
#X obj 52 127 until;
#X obj 48 157 list append;
#X obj 140 74 bang;
#X obj 16 319 + 1;
#X obj 9 286 i;
#X obj 11 196 t b a;
#X obj 3 103 t b b;
#X msg 26 244 0;
#X obj 93 301 text get param;
#X obj 87 354 send;
#X obj 50 67 t b a;
#X obj 88 256 list trim;
#X obj 96 324 route bang;
#X connect 0 0 12 0;
#X connect 1 0 13 0;
#X connect 1 1 3 1;
#X connect 1 2 4 0;
#X connect 2 0 3 0;
#X connect 3 0 7 0;
#X connect 4 0 8 0;
#X connect 5 0 6 1;
#X connect 6 0 5 0;
#X connect 6 0 10 0;
#X connect 7 0 6 0;
#X connect 7 1 1 0;
#X connect 8 0 2 1;
#X connect 8 1 9 0;
#X connect 9 0 6 1;
#X connect 10 0 14 0;
#X connect 12 0 2 0;
#X connect 12 1 3 1;
#X connect 13 0 11 0;
#X connect 14 1 11 1;
